# xmcd CD database file
#
# Track frame offsets:
#	150
#	34910
#	53230
#	87336
#	90950
#	119661
#	134745
#	155058
#	179489
#	203477
#
# Disc length: 2973 seconds
#
# Revision: 0
# Processed by: cddbd v1.5.2PL0 Copyright (c) Steve Scherf et al.
# Submitted via: CDex 1.70beta2
#
DISCID=8b0b9b0a
DTITLE=Giovanni Mirabassi - Terra Furiosa
DYEAR=1900
DGENRE=Jazz
TTITLE0=Alfonsina y el mar
TTITLE1=#3
TTITLE2=Sienna's song
TTITLE3=Last minutes (intro)
TTITLE4=Last minutes
TTITLE5=Radicaux libres
TTITLE6=W.A.F.
TTITLE7=Amba
TTITLE8=Worry doll
TTITLE9=We have the blues Mr Président
EXTD=
EXTT0=
EXTT1=
EXTT2=
EXTT3=
EXTT4=
EXTT5=
EXTT6=
EXTT7=
EXTT8=
EXTT9=
PLAYORDER=
